<?xml version="1.0" standalone="no"?>
<!DOCTYPE svg PUBLIC "-//W3C//DTD SVG 20010904//EN"
 "http://www.w3.org/TR/2001/REC-SVG-20010904/DTD/svg10.dtd">
<svg version="1.0" xmlns="http://www.w3.org/2000/svg"
 width="672.000000pt" height="712.000000pt" viewBox="0 0 672.000000 712.000000"
 preserveAspectRatio="xMidYMid meet">

<g transform="translate(0.000000,712.000000) scale(0.100000,-0.100000)"
fill="#000000" stroke="none">
<path d="M3765 7019 c-296 -38 -614 -142 -884 -289 -646 -351 -1130 -989
-1423 -1874 -140 -423 -196 -807 -169 -1163 7 -93 15 -182 18 -200 5 -31 4
-32 -43 -38 -378 -53 -645 -171 -862 -379 -112 -107 -172 -189 -238 -321 -173
-350 -163 -789 26 -1119 148 -259 423 -473 745 -581 l81 -27 -4 -96 c-6 -167
48 -296 177 -413 152 -140 419 -222 671 -205 165 11 277 40 466 122 8 4 16
-19 23 -63 34 -203 150 -301 381 -322 127 -11 2219 -3 2337 9 123 13 192 40
251 98 73 71 129 206 148 360 6 47 11 57 36 71 59 32 144 103 195 163 288 338
222 943 -144 1317 -40 41 -71 75 -70 76 1 1 43 16 92 34 189 70 414 200 566
326 244 204 420 509 488 850 145 725 -101 1689 -635 2495 -284 429 -663 775
-1065 972 -208 103 -392 160 -620 193 -117 17 -425 19 -544 4z m532 -155 c405
-60 779 -249 1123 -567 536 -497 959 -1337 1070 -2126 78 -552 -9 -1015 -250
-1339 -179 -240 -481 -436 -870 -566 -264 -87 -492 -137 -780 -171 -167 -20
-549 -30 -731 -20 l-136 7 -6 126 c-9 200 -46 341 -136 521 -176 349 -515 594
-948 685 -215 44 -562 69 -933 65 l-235 -3 -7 40 c-3 21 -12 103 -18 181 -51
602 204 1442 632 2080 403 603 1014 995 1693 1087 141 19 404 19 532 0z
m-1967 -3558 c334 -31 541 -95 749 -233 506 -336 641 -1023 299 -1520 -57 -83
-188 -211 -268 -264 -81 -54 -186 -104 -267 -129 -39 -12 -78 -29 -87 -39 -38
-42 -44 -248 -11 -356 l13 -45 -26 6 c-143 33 -325 145 -447 275 -33 35 -69
69 -79 75 -14 8 -68 10 -176 7 l-157 -6 -30 49 c-47 76 -120 142 -202 181 -66
32 -86 37 -170 41 -80 3 -107 1 -160 -18 -78 -26 -163 -80 -198 -126 -14 -19
-34 -34 -44 -34 -57 0 -305 112 -420 190 -283 193 -439 465 -456 797 -21 410
171 765 527 973 181 106 412 169 698 190 165 12 715 4 912 -14z m3038 -1270
c67 -51 161 -161 215 -249 158 -263 186 -612 65 -840 -34 -64 -134 -177 -157
-177 -7 0 -10 3 -8 8 2 4 0 63 -4 132 -15 219 -60 407 -104 436 -33 22 -74 14
-98 -18 l-21 -28 27 -112 c39 -167 50 -289 44 -472 -9 -243 -44 -382 -114
-448 -67 -64 -6 -61 -1233 -69 -708 -5 -1155 -4 -1225 2 -135 12 -185 33 -220
93 -33 56 -50 177 -40 280 6 66 9 77 23 72 10 -2 63 -21 120 -41 124 -44 228
-56 266 -31 40 26 41 54 5 157 -26 78 -32 110 -33 187 l-1 93 86 33 c358 135
628 444 725 832 16 62 17 64 43 57 45 -13 687 -9 811 5 247 27 463 66 655 116
50 13 96 25 103 25 8 1 39 -19 70 -43z m-3793 -861 c137 -62 204 -208 163
-359 -15 -55 -1 -92 38 -102 67 -17 109 28 126 137 l11 77 116 7 115 7 56 -59
c30 -33 79 -79 107 -103 52 -41 53 -43 47 -83 -11 -70 -21 -85 -76 -116 -253
-145 -618 -159 -868 -34 -94 48 -181 131 -218 210 -23 50 -27 70 -27 153 0
107 11 138 74 203 88 94 215 117 336 62z"/>
<path d="M5045 5416 c-119 -17 -194 -40 -286 -87 -264 -137 -430 -418 -446
-754 -22 -463 277 -830 741 -911 121 -22 328 -14 441 15 397 104 635 427 635
860 -1 477 -320 826 -803 880 -116 13 -165 13 -282 -3z m415 -165 c194 -57
360 -189 439 -351 41 -85 91 -253 79 -265 -28 -28 -565 -49 -1028 -40 -217 4
-416 8 -442 8 l-46 0 5 36 c39 284 198 508 422 592 104 39 176 48 341 45 122
-3 171 -8 230 -25z m530 -770 c0 -27 -33 -177 -50 -227 -79 -229 -289 -405
-535 -449 -74 -14 -125 -16 -214 -12 -147 8 -222 26 -341 84 -79 38 -108 59
-180 132 -122 123 -184 248 -206 420 -6 49 -5 53 12 47 18 -5 307 -26 370 -26
l31 0 -18 -52 c-56 -162 23 -329 193 -409 68 -32 79 -34 173 -33 79 0 112 5
157 23 76 29 156 103 193 177 39 76 41 184 7 253 -12 25 -22 46 -22 48 0 2 28
3 63 4 34 1 121 7 192 14 175 16 175 16 175 6z m-938 -215 c33 -159 269 -200
367 -65 17 23 31 48 31 55 0 7 4 15 9 18 5 3 4 -13 -2 -36 -24 -97 -146 -169
-261 -154 -103 14 -194 83 -216 166 -14 50 -7 62 33 58 27 -3 32 -8 39 -42z"/>
<path d="M2650 5414 c-106 -19 -185 -40 -247 -64 -278 -110 -464 -334 -539
-645 -25 -105 -23 -316 5 -420 74 -277 274 -498 537 -594 133 -49 224 -64 384
-64 117 -1 162 4 235 22 169 41 323 134 428 259 61 71 141 232 167 336 45 180
46 421 0 601 -68 273 -255 464 -529 542 -72 21 -112 26 -251 28 -91 2 -176 1
-190 -1z m385 -158 c220 -59 379 -210 434 -414 18 -69 43 -251 35 -261 -7 -8
-167 -20 -415 -32 -210 -10 -319 -10 -605 2 -192 7 -381 13 -420 14 l-70 0 7
50 c24 177 97 325 218 445 110 109 243 175 419 206 98 17 315 11 397 -10z
m-848 -835 c76 -6 167 -11 202 -11 56 0 62 -2 56 -17 -55 -129 -31 -258 68
-357 188 -188 536 -139 648 91 31 63 37 165 15 229 -9 26 -15 48 -13 50 1 1
74 7 162 14 88 6 164 14 169 17 5 4 7 -18 3 -53 -32 -295 -215 -516 -492 -596
-112 -31 -332 -31 -450 1 -254 68 -443 235 -520 458 -24 69 -46 182 -39 195 3
4 16 3 29 -2 13 -5 86 -14 162 -19z m423 -138 c0 -37 22 -93 47 -123 102 -121
310 -88 378 60 l16 35 -6 -34 c-12 -73 -92 -143 -186 -162 -143 -29 -287 58
-314 188 -8 42 -1 53 36 53 21 0 29 -5 29 -17z"/>
<path d="M4255 3281 c-86 -41 -157 -55 -265 -54 -99 0 -182 18 -253 55 -33 16
-44 18 -67 8 -16 -6 -34 -25 -41 -41 -10 -26 -9 -34 8 -57 64 -86 358 -131
547 -82 93 24 176 66 192 99 16 32 -1 80 -33 92 -13 5 -25 9 -26 9 -1 -1 -29
-14 -62 -29z"/>
<path d="M1390 2809 c-58 -23 -79 -59 -171 -293 -113 -286 -258 -670 -271
-714 -28 -101 83 -191 184 -149 45 19 64 47 99 146 l27 76 207 0 207 0 28 -79
c35 -98 56 -127 106 -144 54 -18 101 -7 141 33 62 62 64 53 -219 770 -111 281
-133 321 -190 351 -31 16 -111 18 -148 3z m184 -666 c7 -23 7 -23 -111 -23
l-119 0 53 158 c29 86 56 164 59 172 5 12 78 -178 118 -307z"/>
<path d="M2273 2800 c-67 -40 -64 -15 -61 -568 l3 -500 25 -27 c50 -54 57 -55
360 -55 309 0 319 2 354 60 23 39 21 101 -5 134 -41 52 -62 56 -274 56 l-195
0 0 414 0 413 -23 34 c-12 18 -34 39 -47 46 -37 19 -101 16 -137 -7z"/>
</g>
</svg>
