<?xml version="1.0" standalone="no"?>
<!DOCTYPE svg PUBLIC "-//W3C//DTD SVG 20010904//EN"
 "http://www.w3.org/TR/2001/REC-SVG-20010904/DTD/svg10.dtd">
<svg version="1.0" xmlns="http://www.w3.org/2000/svg"
 width="672.000000pt" height="617.000000pt" viewBox="0 0 672.000000 617.000000"
 preserveAspectRatio="xMidYMid meet">

<g transform="translate(0.000000,617.000000) scale(0.100000,-0.100000)"
fill="#000000" stroke="none">
<path d="M3180 6108 c-141 -6 -280 -27 -365 -54 -357 -114 -686 -331 -880
-580 -197 -251 -336 -547 -478 -1014 -139 -456 -138 -860 2 -1155 58 -122 115
-199 224 -302 90 -84 178 -141 270 -175 32 -11 56 -24 55 -27 -2 -3 -12 -29
-22 -57 l-20 -51 -45 45 c-109 106 -236 174 -352 188 -69 8 -196 -11 -276 -42
-177 -66 -357 -222 -432 -375 -78 -158 -90 -319 -36 -503 99 -342 329 -529
650 -530 61 0 122 3 137 7 l27 7 -13 -38 c-33 -93 -50 -209 -50 -342 -1 -124
1 -139 25 -190 33 -71 120 -152 182 -169 25 -7 67 -11 95 -10 l49 4 2 -140 c1
-154 14 -271 37 -354 8 -29 13 -55 11 -57 -2 -3 -204 -9 -448 -14 -244 -5
-518 -12 -609 -15 -191 -7 -510 8 -655 31 -55 9 -113 16 -129 16 -48 1 -63
-50 -23 -77 60 -39 506 -70 877 -61 135 3 351 9 480 12 129 2 393 9 585 14
193 6 444 10 558 10 182 0 215 -3 267 -20 124 -42 180 -50 315 -46 102 3 143
9 190 26 33 12 98 26 145 30 123 12 997 -5 1035 -20 51 -21 182 -16 252 8 59
21 80 22 550 25 555 4 1222 25 1241 40 19 15 14 55 -9 68 -22 11 -490 6 -629
-8 -86 -8 -980 -10 -980 -2 0 4 6 12 13 18 34 27 44 151 16 187 -6 7 -3 16 7
25 24 20 69 114 98 209 40 124 47 312 18 428 -26 100 -85 220 -158 319 l-55
73 43 19 c24 10 61 24 83 31 128 42 267 127 323 197 51 65 89 138 123 235 27
79 32 111 37 220 5 141 -3 191 -47 278 -106 208 -268 358 -427 396 -123 29
-217 12 -400 -72 -10 -4 -40 55 -32 61 2 1 37 21 78 45 276 155 428 344 497
617 14 56 17 117 18 338 0 311 -14 416 -83 610 -134 375 -303 680 -565 1017
-121 155 -200 227 -382 348 -275 181 -467 260 -710 289 -132 16 -157 17 -305
9z m238 -98 c246 -27 408 -85 656 -238 272 -167 374 -273 631 -658 183 -273
358 -673 400 -911 23 -132 37 -343 29 -473 -23 -423 -178 -633 -624 -842 -69
-32 -133 -63 -143 -69 -17 -9 -17 -7 -10 28 8 38 9 159 3 308 -1 44 1 118 5
165 6 77 5 92 -15 138 -39 91 -151 178 -321 251 -184 79 -335 94 -504 52 -118
-30 -149 -29 -280 5 -93 24 -129 29 -235 29 -122 0 -129 -1 -280 -49 -215 -67
-287 -105 -393 -205 -54 -51 -77 -88 -77 -124 0 -13 -10 -43 -22 -68 -13 -28
-21 -65 -22 -101 -1 -52 5 -69 62 -179 60 -115 64 -125 69 -207 2 -48 9 -103
15 -122 18 -62 85 -138 195 -221 126 -96 127 -94 -50 -94 -167 0 -217 -11
-313 -65 -30 -16 -56 -30 -59 -30 -3 0 -5 10 -5 23 0 29 -24 97 -60 172 l-29
60 19 69 c10 38 28 81 39 97 12 15 21 32 21 37 0 5 44 12 97 16 105 8 123 16
123 52 0 44 -36 56 -136 44 -184 -21 -327 41 -493 213 -151 156 -221 311 -251
557 -29 240 12 535 121 863 165 497 312 771 534 992 170 170 350 288 576 378
149 60 240 84 380 101 143 17 224 19 347 6z m-191 -2341 c137 -35 178 -36 313
-4 121 28 170 30 272 11 189 -36 401 -156 445 -251 20 -44 22 -114 3 -171 -10
-30 -10 -57 0 -135 7 -53 11 -135 8 -181 -6 -86 -7 -90 -78 -213 -17 -29 -31
-71 -34 -100 -3 -27 -8 -77 -12 -110 -3 -33 -7 -61 -9 -63 -2 -2 -31 6 -65 18
-124 44 -304 21 -475 -61 -128 -61 -232 -160 -314 -299 -66 -112 -99 -243 -87
-356 7 -64 3 -72 -23 -55 -10 7 -13 31 -12 97 2 104 -22 210 -70 312 -40 85
-166 213 -254 259 -49 26 -63 39 -74 68 -16 45 -60 96 -126 145 -64 48 -134
116 -165 160 -21 29 -25 50 -30 140 -6 111 -8 115 -85 254 -49 87 -51 130 -10
210 21 42 38 61 58 68 33 12 50 39 42 70 -5 20 4 30 65 70 40 26 90 53 113 59
23 6 91 26 150 46 183 58 265 61 454 12z m-1591 -854 c61 -18 173 -95 231
-158 85 -92 150 -216 179 -341 16 -65 19 -57 -51 -137 -86 -99 -140 -249 -147
-408 l-3 -73 -61 -37 c-93 -57 -183 -83 -299 -88 -92 -4 -108 -2 -193 26 -59
19 -111 45 -145 70 -157 119 -256 332 -257 551 0 109 20 187 72 275 44 75 153
190 203 215 17 8 45 25 63 37 31 20 144 66 187 76 46 11 175 6 221 -8z m2921
-21 c-3 -4 0 -21 8 -40 l13 -33 -64 -53 c-73 -61 -135 -141 -192 -249 l-39
-75 -32 28 -31 28 15 86 c8 48 15 101 15 118 0 17 4 37 9 45 5 8 71 44 147 82
128 63 167 79 151 63z m540 -54 c56 -24 193 -155 259 -246 76 -105 96 -164 97
-274 1 -104 -33 -263 -74 -349 -33 -67 -141 -170 -229 -219 -41 -23 -125 -57
-187 -77 l-112 -35 -37 25 c-52 35 -124 55 -229 62 l-91 6 0 146 c0 181 -15
247 -91 389 l-54 103 40 82 c55 114 115 193 202 264 168 137 366 185 506 123z
m-2492 -411 c193 -23 325 -108 401 -259 42 -85 55 -140 61 -266 6 -124 -4
-210 -34 -316 -15 -49 -21 -57 -46 -62 -91 -18 -296 -152 -357 -232 -19 -26
-44 -57 -55 -70 l-20 -24 -130 10 c-176 14 -168 11 -161 73 9 70 -8 153 -41
200 -49 70 -187 127 -241 98 -26 -14 -30 -4 -42 116 -11 104 -7 166 16 288 22
114 61 189 141 272 151 157 277 200 508 172z m1596 -36 c13 -16 12 -17 -3 -4
-17 13 -22 21 -14 21 2 0 10 -8 17 -17z m-946 -842 c-2 -2 -35 0 -74 4 l-69 7
14 40 c8 22 14 50 14 63 0 42 14 34 66 -38 28 -39 51 -74 49 -76z m-1375 -1
c7 -4 3 -13 -10 -25 -25 -23 -25 -47 0 -70 20 -18 22 -17 73 8 157 80 266 -28
222 -218 -30 -132 -104 -233 -207 -284 -73 -37 -125 -40 -179 -9 -52 29 -85
80 -106 162 -26 108 -2 298 59 469 18 51 26 61 67 81 l46 24 12 -66 c7 -36 17
-68 23 -72z m2840 66 c19 -8 52 -27 72 -44 103 -81 242 -304 268 -428 16 -74
8 -255 -15 -344 -23 -89 -86 -216 -105 -212 -113 26 -118 26 -197 4 -160 -46
-239 -108 -264 -208 -6 -24 -17 -44 -23 -44 -7 0 -48 9 -92 21 -164 42 -335
154 -397 258 -54 91 -71 170 -72 336 0 161 9 200 67 302 93 163 304 332 463
372 55 14 252 6 295 -13z m-650 -90 c0 -2 -7 -7 -16 -10 -8 -3 -12 -2 -9 4 6
10 25 14 25 6z m-248 -376 c-15 -47 -32 -58 -32 -22 0 9 -9 28 -20 42 -11 14
-20 27 -20 30 0 3 20 4 44 2 l44 -4 -16 -48z m-1452 -31 c58 -4 113 -8 124 -8
13 -1 16 -6 11 -18 -4 -10 -18 -58 -32 -108 -65 -230 1 -486 165 -637 l51 -47
-306 -3 c-168 -2 -309 -1 -313 2 -23 15 -49 254 -50 458 0 46 -4 92 -10 102
-8 15 -4 22 23 39 50 31 131 120 167 185 25 43 37 56 49 51 9 -4 63 -11 121
-16z m1505 -519 c54 -107 226 -250 348 -289 20 -7 37 -14 37 -16 0 -3 -148 -3
-329 -2 l-329 2 32 38 c17 21 42 53 55 70 34 47 96 183 117 256 l18 64 11 -34
c7 -19 25 -59 40 -89z m1022 -92 c37 -17 52 -37 53 -71 1 -99 -127 -183 -276
-180 -92 1 -114 13 -114 59 0 88 56 144 178 180 89 27 120 29 159 12z"/>
<path d="M2281 5124 c-144 -20 -259 -50 -306 -81 -65 -42 -207 -193 -248 -263
-114 -196 -114 -454 0 -690 61 -126 170 -239 283 -293 198 -94 335 -111 505
-62 142 40 219 82 289 154 141 144 192 291 203 581 9 248 -30 379 -151 500
-130 130 -341 187 -575 154z m314 -114 c98 -31 141 -55 195 -110 85 -84 120
-185 120 -352 l0 -96 -32 -11 c-106 -33 -428 -53 -800 -49 -296 3 -308 2 -322
-17 -13 -18 -14 -14 -17 45 -6 94 15 193 56 277 49 99 174 228 260 268 155 73
388 92 540 45z m296 -743 c-36 -189 -139 -337 -276 -397 -66 -28 -221 -70
-262 -70 -72 0 -221 43 -314 90 -61 32 -172 143 -207 207 -54 102 -101 246
-70 215 8 -8 62 -12 185 -12 l173 0 -21 -21 c-17 -17 -20 -28 -15 -62 25 -153
130 -240 305 -254 126 -9 198 23 242 109 27 54 42 147 30 198 -5 22 -6 40 -2
40 31 1 225 31 230 35 12 13 13 -19 2 -78z m-501 1 c0 -32 0 -32 -16 -10 -8
12 -24 22 -35 22 -10 0 -19 5 -19 10 0 6 16 10 35 10 33 0 35 -2 35 -32z m130
24 c0 -4 10 -12 23 -17 17 -8 23 -19 25 -55 2 -39 1 -42 -10 -25 -6 11 -19 26
-29 33 -10 7 -27 26 -39 42 l-21 30 25 0 c14 0 26 -3 26 -8z m-312 -119 c-3
-27 -4 -27 -17 11 -11 32 -11 40 0 47 16 10 22 -13 17 -58z m136 -57 c-3 -8 5
-23 17 -35 27 -25 14 -27 -50 -7 -25 7 -47 18 -49 25 -2 6 0 11 5 10 4 -1 15
0 23 4 52 20 61 20 54 3z m131 -7 c5 -5 20 -9 35 -9 l25 -1 -24 -19 c-27 -24
-41 -25 -41 -6 0 8 -12 24 -27 36 l-28 21 25 -7 c14 -3 29 -10 35 -15z"/>
<path d="M4004 5106 c-96 -30 -236 -133 -309 -229 -186 -239 -178 -578 18
-788 114 -123 234 -191 369 -207 155 -19 394 8 481 56 196 106 320 350 304
597 -13 203 -91 330 -266 440 -50 31 -185 79 -252 90 -24 4 -82 18 -129 31
-93 27 -154 29 -216 10z m210 -112 c67 -14 156 -35 198 -46 180 -47 328 -188
345 -328 5 -41 3 -49 -13 -54 -62 -19 -252 -38 -479 -46 -277 -10 -570 -28
-596 -36 -13 -4 -14 4 -7 67 15 128 73 236 181 341 62 61 181 128 225 128 14
0 80 -12 146 -26z m556 -542 c0 -98 -72 -269 -145 -345 -95 -99 -154 -120
-380 -133 -197 -11 -303 27 -436 156 -68 67 -113 140 -134 221 l-12 45 31 0
c17 0 95 3 173 8 l142 8 -16 -32 c-36 -74 11 -197 100 -257 203 -137 471 25
412 250 -7 28 -12 53 -11 54 2 2 27 6 57 9 30 3 86 12 124 19 97 17 95 17 95
-3z m-380 -35 c0 -2 -10 -12 -23 -23 l-23 -20 -17 23 -18 23 41 0 c22 0 40 -1
40 -3z m-220 -58 c0 -5 -4 -9 -10 -9 -5 0 -10 7 -10 16 0 8 5 12 10 9 6 -3 10
-10 10 -16z m234 -106 c-20 -48 -34 -63 -34 -37 0 11 -6 26 -12 33 -8 9 -8 11
-2 8 7 -4 23 2 35 13 13 11 25 19 26 20 1 0 -5 -17 -13 -37z m-227 -28 c-3 -5
0 -18 5 -27 5 -10 6 -18 3 -18 -11 0 -60 35 -77 55 -15 18 -16 21 -1 32 12 10
21 8 44 -10 16 -11 28 -26 26 -32z m163 36 c0 -4 -6 -8 -14 -8 -8 0 -12 6 -9
14 5 13 23 9 23 -6z"/>
<path d="M3170 3080 c-24 -24 -25 -43 -5 -63 11 -11 56 -17 188 -22 230 -10
307 5 307 60 0 43 -21 49 -126 37 -52 -6 -101 -9 -107 -7 -7 2 -63 6 -124 9
-104 6 -114 5 -133 -14z"/>
<path d="M1414 2550 c-38 -9 -102 -46 -127 -74 -46 -52 -62 -167 -33 -237 18
-43 58 -86 91 -99 42 -16 108 -12 150 10 22 11 40 20 42 20 1 0 -4 -15 -12
-33 -7 -18 -27 -86 -44 -151 -32 -125 -31 -146 10 -146 22 0 45 33 54 80 4 19
29 104 56 188 77 239 76 302 -4 383 -63 63 -107 78 -183 59z m101 -84 c60 -26
83 -108 48 -173 -46 -84 -156 -112 -214 -54 -25 25 -29 37 -29 83 0 85 38 132
120 149 19 4 36 7 38 8 1 0 18 -5 37 -13z"/>
<path d="M5037 2426 c-48 -17 -105 -61 -119 -91 -23 -50 21 -75 58 -34 45 50
123 64 164 31 18 -14 24 -32 28 -74 6 -79 -25 -142 -142 -281 -53 -63 -96
-122 -96 -130 0 -9 8 -21 18 -26 21 -11 284 -17 300 -7 20 12 14 54 -10 68
-13 6 -53 12 -90 12 l-66 0 31 44 c99 136 118 168 133 218 21 74 12 147 -26
207 -46 73 -101 92 -183 63z"/>
<path d="M4593 2388 c-44 -23 -69 -57 -60 -83 11 -28 37 -28 90 -1 80 40 127
34 127 -17 0 -24 -13 -43 -65 -95 -87 -85 -86 -122 4 -122 116 0 164 -103 71
-150 -53 -27 -86 -25 -116 6 -29 28 -50 28 -70 -1 -30 -46 41 -105 126 -105
87 1 172 62 185 134 15 78 -26 141 -115 179 -19 9 -28 16 -19 16 9 1 28 18 43
40 34 49 39 122 11 165 -38 57 -135 72 -212 34z"/>
<path d="M2543 2069 c-76 -37 -116 -105 -76 -128 13 -7 25 -2 50 19 56 49 135
63 173 30 19 -17 22 -27 18 -70 -8 -78 -57 -164 -158 -275 -51 -55 -97 -110
-103 -123 -19 -40 0 -45 154 -44 147 1 158 5 159 44 0 24 -32 31 -152 37 l-28
1 23 27 c12 14 46 54 76 87 29 33 62 79 74 101 45 88 54 189 21 244 -40 68
-148 91 -231 50z"/>
<path d="M2246 2064 c-14 -13 -16 -54 -16 -288 0 -297 2 -305 55 -292 l24 6 3
268 c2 147 0 275 -5 284 -13 29 -43 40 -61 22z"/>
<path d="M4583 1188 c-6 -7 -16 -49 -22 -93 -6 -43 -19 -110 -28 -147 -23 -94
-17 -99 104 -96 93 3 95 2 119 -25 53 -62 14 -146 -73 -160 -51 -9 -119 5
-167 33 l-35 21 -16 -25 c-24 -36 -13 -53 48 -81 75 -35 132 -41 200 -21 104
30 156 101 143 193 -12 88 -80 145 -175 147 l-56 1 12 80 c6 44 12 83 12 88 1
4 35 7 77 7 87 0 114 11 114 45 0 14 -8 29 -19 35 -29 15 -226 13 -238 -2z"/>
<path d="M4317 1168 c-13 -11 -17 -41 -23 -153 l-7 -140 -94 -3 -95 -4 31 46
c42 60 91 165 91 194 0 14 -9 27 -24 34 -29 13 -56 5 -56 -17 0 -22 -44 -106
-111 -212 -33 -51 -59 -94 -59 -97 0 -2 7 -11 15 -19 12 -12 40 -14 158 -10
l143 6 -1 -109 0 -109 26 -3 c40 -5 51 19 57 122 l5 94 33 6 c59 12 57 76 -3
76 -19 0 -32 4 -29 9 12 19 8 271 -4 286 -15 18 -31 19 -53 3z"/>
</g>
</svg>
