<?xml version="1.0" standalone="no"?>
<!DOCTYPE svg PUBLIC "-//W3C//DTD SVG 20010904//EN"
 "http://www.w3.org/TR/2001/REC-SVG-20010904/DTD/svg10.dtd">
<svg version="1.0" xmlns="http://www.w3.org/2000/svg"
 width="1254.000000pt" height="1254.000000pt" viewBox="0 0 1254.000000 1254.000000"
 preserveAspectRatio="xMidYMid meet">

<g transform="translate(0.000000,1254.000000) scale(0.100000,-0.100000)"
fill="#000000" stroke="none">
<path d="M6655 9654 c-234 -31 -442 -96 -674 -211 -419 -207 -768 -523 -1037
-938 -267 -410 -466 -933 -539 -1415 -20 -132 -30 -410 -18 -512 l9 -77 -65
-6 c-238 -22 -343 -40 -476 -82 -509 -161 -837 -593 -837 -1104 0 -410 206
-764 568 -977 76 -45 214 -104 286 -122 l45 -12 -5 -88 c-9 -159 38 -280 153
-395 236 -237 701 -290 1061 -121 l71 33 12 -76 c17 -100 53 -198 86 -230 l25
-26 1344 0 1345 0 28 21 c63 47 163 274 179 408 6 51 10 58 62 102 151 131
239 318 249 535 15 304 -89 597 -285 807 -55 59 -58 64 -38 72 151 58 286 125
408 201 262 162 468 385 582 631 92 198 133 372 143 598 24 552 -164 1226
-494 1775 -353 588 -893 1019 -1461 1166 -222 57 -500 74 -727 43z m601 -158
c769 -161 1447 -838 1765 -1763 116 -338 172 -655 173 -973 0 -278 -42 -462
-150 -668 -71 -136 -141 -228 -251 -333 -353 -335 -916 -538 -1638 -590 -154
-11 -500 -7 -642 7 l-63 7 0 101 c-1 456 -242 843 -653 1049 -260 131 -479
168 -989 171 l-266 1 -6 26 c-3 15 -8 78 -12 140 -32 556 249 1377 658 1920
239 319 537 565 893 739 300 147 551 202 885 195 138 -3 201 -9 296 -29z
m-2201 -3136 c110 -6 241 -17 290 -25 493 -79 848 -392 941 -829 56 -266 2
-558 -147 -777 -119 -177 -337 -344 -514 -394 -83 -23 -102 -46 -110 -138 -6
-65 3 -171 22 -244 7 -31 -11 -30 -95 3 -121 48 -221 114 -321 212 -52 50
-100 93 -105 93 -6 1 -76 1 -156 -1 l-146 -2 -13 28 c-37 82 -138 162 -245
196 -48 15 -81 19 -151 15 -127 -6 -193 -33 -273 -113 l-62 -62 -78 25 c-295
96 -518 286 -642 544 -67 142 -83 218 -84 409 -1 143 2 177 23 255 103 396
416 674 859 765 201 41 641 58 1007 40z m3075 -1287 c84 -85 103 -112 148
-203 104 -211 139 -473 85 -652 -19 -64 -73 -172 -106 -213 l-25 -30 -7 50
c-31 232 -66 373 -96 398 -31 25 -77 18 -101 -13 -18 -25 -18 -27 6 -128 83
-341 70 -572 -41 -784 l-36 -68 -1285 2 -1286 3 -20 60 c-15 47 -20 90 -20
197 -1 75 2 139 5 143 4 3 40 -6 81 -19 41 -14 107 -30 147 -37 68 -10 76 -9
100 9 34 25 37 59 11 137 -27 81 -43 189 -35 237 6 32 12 39 43 49 64 21 214
99 281 147 194 138 361 376 424 602 l22 81 115 -8 c201 -14 669 -8 820 10 202
26 310 45 470 87 80 20 158 38 174 39 25 1 45 -15 126 -96z m-3673 -739 c123
-59 183 -197 144 -335 -15 -55 -5 -84 36 -100 60 -23 113 42 121 150 l4 68
102 6 101 5 65 -64 c36 -35 91 -83 124 -106 56 -40 58 -42 52 -77 -3 -20 -6
-48 -6 -63 0 -33 -45 -65 -152 -109 -125 -51 -230 -72 -373 -72 -220 -1 -389
57 -508 175 -135 134 -157 333 -51 457 84 97 219 123 341 65z"/>
<path d="M7857 8249 c-412 -47 -695 -393 -674 -823 13 -296 183 -547 450 -671
136 -63 211 -78 392 -79 190 -1 263 13 400 79 466 224 579 850 222 1231 -138
148 -292 226 -512 259 -107 16 -170 17 -278 4z m340 -150 c238 -54 431 -233
497 -461 26 -92 25 -94 -46 -101 -174 -18 -646 -29 -959 -24 -261 4 -349 3
-359 -6 -19 -18 -5 97 21 175 70 206 210 349 405 412 117 38 291 40 441 5z
m519 -736 c-15 -131 -82 -266 -181 -367 -131 -134 -292 -196 -506 -196 -290 0
-532 141 -643 374 -44 91 -66 162 -66 210 0 22 3 24 23 17 12 -4 98 -11 192
-15 93 -4 171 -8 172 -10 2 -2 -4 -20 -13 -42 -21 -49 -15 -154 11 -209 26
-53 83 -109 147 -141 75 -39 208 -45 289 -15 157 59 237 221 184 371 -8 24
-14 44 -13 45 2 1 89 8 193 15 105 6 192 14 194 16 17 16 23 -3 17 -53z m-845
-144 c11 -70 81 -129 152 -129 71 0 143 44 177 109 10 20 19 30 20 23 1 -29
-43 -94 -80 -118 -72 -48 -203 -43 -270 8 -34 27 -70 87 -70 120 0 23 4 26 32
25 29 -2 33 -6 39 -38z"/>
<path d="M5534 8226 c-116 -22 -184 -45 -279 -94 -72 -38 -109 -66 -186 -142
-86 -85 -102 -107 -147 -200 -73 -150 -86 -208 -86 -370 0 -118 4 -146 28
-225 83 -272 294 -472 582 -552 90 -25 115 -27 264 -27 153 0 171 2 250 28
265 87 430 264 502 541 20 78 23 112 22 265 0 156 -3 186 -27 272 -37 139 -86
228 -177 318 -86 86 -157 127 -285 165 -76 23 -114 28 -240 31 -99 2 -174 -1
-221 -10z m401 -141 c250 -67 391 -249 412 -531 l6 -81 -64 -6 c-261 -22 -614
-30 -938 -19 -223 7 -351 7 -363 1 -16 -9 -18 -5 -18 28 0 55 35 184 66 245
64 126 180 244 297 302 65 31 179 66 262 79 59 10 280 -2 340 -18z m415 -756
c0 -52 -36 -173 -76 -257 -73 -152 -175 -241 -340 -299 -73 -26 -90 -27 -234
-27 -143 0 -162 2 -240 28 -112 37 -151 57 -235 121 -78 59 -161 161 -199 245
-24 53 -61 188 -53 196 2 2 57 0 123 -6 65 -5 167 -10 227 -10 59 0 107 -2
107 -4 0 -2 -7 -21 -16 -42 -37 -88 0 -218 83 -295 73 -67 121 -83 248 -84 95
0 116 3 156 23 141 70 218 240 166 365 l-16 36 32 5 c18 3 79 9 137 14 58 5
111 10 118 10 6 1 12 -7 12 -19z m-770 -144 c0 -142 197 -207 315 -104 18 16
38 43 45 59 16 39 24 33 10 -6 -37 -96 -162 -147 -281 -114 -84 23 -149 94
-149 161 0 37 2 39 30 39 28 0 30 -3 30 -35z"/>
<path d="M7086 6323 c-114 -59 -303 -63 -441 -8 -61 25 -68 25 -89 12 -51 -34
-36 -90 35 -125 97 -48 282 -65 412 -37 82 17 185 62 197 86 17 30 11 67 -12
83 -29 21 -44 19 -102 -11z"/>
<path d="M4180 5939 c-32 -13 -68 -47 -86 -82 -28 -52 -277 -716 -341 -907
-21 -63 -23 -80 -14 -110 24 -80 110 -120 184 -85 45 21 63 48 97 149 l27 81
208 0 207 0 30 -85 c33 -94 56 -125 107 -147 70 -30 158 17 178 95 9 37 -54
213 -287 805 -84 214 -111 260 -167 283 -37 16 -107 17 -143 3z m133 -529 c31
-88 57 -165 57 -170 0 -6 -47 -10 -115 -10 -85 0 -115 3 -115 13 0 18 104 326
111 327 3 0 31 -72 62 -160z"/>
<path d="M5074 5940 c-35 -14 -72 -67 -79 -113 -3 -23 -5 -254 -3 -512 3 -523
1 -503 71 -545 30 -19 52 -20 322 -20 270 0 292 1 319 19 40 27 55 57 56 114
0 42 -5 54 -33 82 -30 30 -40 33 -114 40 -45 4 -140 5 -210 3 l-128 -3 -5 430
c-5 393 -7 432 -23 457 -33 48 -116 71 -173 48z"/>
</g>
</svg>
